#Comment line ignore any data following # character 
#Hierarchical Translation and Rotation (.htr) file 
[Header]	
#Header keywords are followed by a single value 
FileType HTR		#Single word string
DataType HTRS		#Translation followed by rotation and scale data
FileVersion 1		#integer
NumSegments 84		#integer
NumFrames 2		#integer
DataFrameRate 30		#integer, data frame rate in this file
EulerRotationOrder ZYX
CalibrationUnits mm
RotationUnits Degrees
GlobalAxisofGravity Y
BoneLengthAxis Y
ScaleFactor 1.00
[SegmentNames&Hierarchy]
#CHILD	PARENT
MASTER GLOBAL
root MASTER
chest root
L_mid_tent01 root
R_mid_tent01 root
spine01 root
Bip01_Neck chest
L_humerus chest
R_humerus chest
weapon_bone chest
Bip01_Head Bip01_Neck
eye_left_bone Bip01_Head
eye_right_bone Bip01_Head
L_forearm L_humerus
L_front_hand L_forearm
L_weapon_bone L_forearm
L_front_hand01_01 L_front_hand
L_front_hand02_01 L_front_hand
L_front_hand03_01 L_front_hand
L_front_hand01_02 L_front_hand01_01
L_front_hand02_02 L_front_hand02_01
L_front_hand03_02 L_front_hand03_01
R_forearm R_humerus
R_front_hand R_forearm
R_weapon_bone R_forearm
R_front_hand01_01 R_front_hand
R_front_hand02_01 R_front_hand
R_front_hand03_01 R_front_hand
R_front_hand01_02 R_front_hand01_01
R_front_hand02_02 R_front_hand02_01
R_front_hand03_02 R_front_hand03_01
null_rope01_connect L_mid_tent01
Rope1_Seg01 null_rope01_connect
Rope1_Seg02 Rope1_Seg01
Rope1_Seg03 Rope1_Seg02
Rope1_Seg04 Rope1_Seg03
Rope1_Seg05 Rope1_Seg04
Rope1_Seg06 Rope1_Seg05
Rope1_Seg07 Rope1_Seg06
Rope1_Seg09 Rope1_Seg07
L_mid_hand01 Rope1_Seg09
L_mid_hand02 Rope1_Seg09
L_mid_hand03 Rope1_Seg09
null_rope02_connect R_mid_tent01
Rope2_Seg01 null_rope02_connect
Rope2_Seg02 Rope2_Seg01
Rope2_Seg03 Rope2_Seg02
Rope2_Seg04 Rope2_Seg03
Rope2_Seg05 Rope2_Seg04
Rope2_Seg06 Rope2_Seg05
Rope2_Seg07 Rope2_Seg06
Rope2_Seg09 Rope2_Seg07
R_mid_hand01 Rope2_Seg09
R_mid_hand02 Rope2_Seg09
R_mid_hand03 Rope2_Seg09
spine02 spine01
spine03 spine02
pelvis spine03
null_rope03_connect pelvis
null_rope04_connect pelvis
Rope3_Seg01 null_rope03_connect
Rope3_Seg02 Rope3_Seg01
Rope3_Seg03 Rope3_Seg02
Rope3_Seg04 Rope3_Seg03
Rope3_Seg05 Rope3_Seg04
Rope3_Seg06 Rope3_Seg05
Rope3_Seg07 Rope3_Seg06
Rope3_Seg08 Rope3_Seg07
Rope3_Seg09 Rope3_Seg08
R_rear_hand01 Rope3_Seg09
R_rear_hand02 Rope3_Seg09
R_rear_hand03 Rope3_Seg09
Rope4_Seg01 null_rope04_connect
Rope4_Seg02 Rope4_Seg01
Rope4_Seg03 Rope4_Seg02
Rope4_Seg04 Rope4_Seg03
Rope4_Seg05 Rope4_Seg04
Rope4_Seg06 Rope4_Seg05
Rope4_Seg07 Rope4_Seg06
Rope4_Seg08 Rope4_Seg07
Rope4_Seg09 Rope4_Seg08
L_rear_hand01 Rope4_Seg09
L_rear_hand02 Rope4_Seg09
L_rear_hand03 Rope4_Seg09
[BasePosition]
#SegmentName Tx, Ty, Tz, Rx, Ry, Rz, BoneLength
MASTER 0.000000 0.000000 0.000000 -90.000000 0.000000 0.000000 10.000000 
root 0.000000 0.000000 0.000000 0.000000 0.000000 0.000000 10.000000 
chest 0.000000 0.000000 0.000000 0.000000 0.000000 0.000000 10.000000 
L_mid_tent01 0.000000 0.000000 0.000000 0.000000 0.000000 0.000000 10.000000 
R_mid_tent01 0.000000 0.000000 0.000000 0.000000 0.000000 0.000000 10.000000 
spine01 0.000000 0.000000 0.000000 0.000000 0.000000 0.000000 10.000000 
Bip01_Neck 0.000000 0.000000 0.000000 0.000000 0.000000 0.000000 10.000000 
L_humerus 0.000000 0.000000 0.000000 0.000000 0.000000 0.000000 10.000000 
R_humerus 0.000000 0.000000 0.000000 0.000000 0.000000 0.000000 10.000000 
weapon_bone 0.000000 0.000000 0.000000 0.000000 0.000000 0.000000 10.000000 
Bip01_Head 0.000000 0.000000 0.000000 0.000000 0.000000 0.000000 10.000000 
eye_left_bone 0.000000 0.000000 0.000000 0.000000 0.000000 0.000000 10.000000 
eye_right_bone 0.000000 0.000000 0.000000 0.000000 0.000000 0.000000 10.000000 
L_forearm 0.000000 0.000000 0.000000 0.000000 0.000000 0.000000 10.000000 
L_front_hand 0.000000 0.000000 0.000000 0.000000 0.000000 0.000000 10.000000 
L_weapon_bone 0.000000 0.000000 0.000000 0.000000 0.000000 0.000000 10.000000 
L_front_hand01_01 0.000000 0.000000 0.000000 0.000000 0.000000 0.000000 10.000000 
L_front_hand02_01 0.000000 0.000000 0.000000 0.000000 0.000000 0.000000 10.000000 
L_front_hand03_01 0.000000 0.000000 0.000000 0.000000 0.000000 0.000000 10.000000 
L_front_hand01_02 0.000000 0.000000 0.000000 0.000000 0.000000 0.000000 10.000000 
L_front_hand02_02 0.000000 0.000000 0.000000 0.000000 0.000000 0.000000 10.000000 
L_front_hand03_02 0.000000 0.000000 0.000000 0.000000 0.000000 0.000000 10.000000 
R_forearm 0.000000 0.000000 0.000000 0.000000 0.000000 0.000000 10.000000 
R_front_hand 0.000000 0.000000 0.000000 0.000000 0.000000 0.000000 10.000000 
R_weapon_bone 0.000000 0.000000 0.000000 0.000000 0.000000 0.000000 10.000000 
R_front_hand01_01 0.000000 0.000000 0.000000 0.000000 0.000000 0.000000 10.000000 
R_front_hand02_01 0.000000 0.000000 0.000000 0.000000 0.000000 0.000000 10.000000 
R_front_hand03_01 0.000000 0.000000 0.000000 0.000000 0.000000 0.000000 10.000000 
R_front_hand01_02 0.000000 0.000000 0.000000 0.000000 0.000000 0.000000 10.000000 
R_front_hand02_02 0.000000 0.000000 0.000000 0.000000 0.000000 0.000000 10.000000 
R_front_hand03_02 0.000000 0.000000 0.000000 0.000000 0.000000 0.000000 10.000000 
null_rope01_connect 0.000000 0.000000 0.000000 0.000000 0.000000 0.000000 10.000000 
Rope1_Seg01 0.000000 0.000000 0.000000 0.000000 0.000000 0.000000 10.000000 
Rope1_Seg02 0.000000 0.000000 0.000000 0.000000 0.000000 0.000000 10.000000 
Rope1_Seg03 0.000000 0.000000 0.000000 0.000000 0.000000 0.000000 10.000000 
Rope1_Seg04 0.000000 0.000000 0.000000 0.000000 0.000000 0.000000 10.000000 
Rope1_Seg05 0.000000 0.000000 0.000000 0.000000 0.000000 0.000000 10.000000 
Rope1_Seg06 0.000000 0.000000 0.000000 0.000000 0.000000 0.000000 10.000000 
Rope1_Seg07 0.000000 0.000000 0.000000 0.000000 0.000000 0.000000 10.000000 
Rope1_Seg09 0.000000 0.000000 0.000000 0.000000 0.000000 0.000000 10.000000 
L_mid_hand01 0.000000 0.000000 0.000000 0.000000 0.000000 0.000000 10.000000 
L_mid_hand02 0.000000 0.000000 0.000000 0.000000 0.000000 0.000000 10.000000 
L_mid_hand03 0.000000 0.000000 0.000000 0.000000 0.000000 0.000000 10.000000 
null_rope02_connect 0.000000 0.000000 0.000000 0.000000 0.000000 0.000000 10.000000 
Rope2_Seg01 0.000000 0.000000 0.000000 0.000000 0.000000 0.000000 10.000000 
Rope2_Seg02 0.000000 0.000000 0.000000 0.000000 0.000000 0.000000 10.000000 
Rope2_Seg03 0.000000 0.000000 0.000000 0.000000 0.000000 0.000000 10.000000 
Rope2_Seg04 0.000000 0.000000 0.000000 0.000000 0.000000 0.000000 10.000000 
Rope2_Seg05 0.000000 0.000000 0.000000 0.000000 0.000000 0.000000 10.000000 
Rope2_Seg06 0.000000 0.000000 0.000000 0.000000 0.000000 0.000000 10.000000 
Rope2_Seg07 0.000000 0.000000 0.000000 0.000000 0.000000 0.000000 10.000000 
Rope2_Seg09 0.000000 0.000000 0.000000 0.000000 0.000000 0.000000 10.000000 
R_mid_hand01 0.000000 0.000000 0.000000 0.000000 0.000000 0.000000 10.000000 
R_mid_hand02 0.000000 0.000000 0.000000 0.000000 0.000000 0.000000 10.000000 
R_mid_hand03 0.000000 0.000000 0.000000 0.000000 0.000000 0.000000 10.000000 
spine02 0.000000 0.000000 0.000000 0.000000 0.000000 0.000000 10.000000 
spine03 0.000000 0.000000 0.000000 0.000000 0.000000 0.000000 10.000000 
pelvis 0.000000 0.000000 0.000000 0.000000 0.000000 0.000000 10.000000 
null_rope03_connect 0.000000 0.000000 0.000000 0.000000 0.000000 0.000000 10.000000 
null_rope04_connect 0.000000 0.000000 0.000000 0.000000 0.000000 0.000000 10.000000 
Rope3_Seg01 0.000000 0.000000 0.000000 0.000000 0.000000 0.000000 10.000000 
Rope3_Seg02 0.000000 0.000000 0.000000 0.000000 0.000000 0.000000 10.000000 
Rope3_Seg03 0.000000 0.000000 0.000000 0.000000 0.000000 0.000000 10.000000 
Rope3_Seg04 0.000000 0.000000 0.000000 0.000000 0.000000 0.000000 10.000000 
Rope3_Seg05 0.000000 0.000000 0.000000 0.000000 0.000000 0.000000 10.000000 
Rope3_Seg06 0.000000 0.000000 0.000000 0.000000 0.000000 0.000000 10.000000 
Rope3_Seg07 0.000000 0.000000 0.000000 0.000000 0.000000 0.000000 10.000000 
Rope3_Seg08 0.000000 0.000000 0.000000 0.000000 0.000000 0.000000 10.000000 
Rope3_Seg09 0.000000 0.000000 0.000000 0.000000 0.000000 0.000000 10.000000 
R_rear_hand01 0.000000 0.000000 0.000000 0.000000 0.000000 0.000000 10.000000 
R_rear_hand02 0.000000 0.000000 0.000000 0.000000 0.000000 0.000000 10.000000 
R_rear_hand03 0.000000 0.000000 0.000000 0.000000 0.000000 0.000000 10.000000 
Rope4_Seg01 0.000000 0.000000 0.000000 0.000000 0.000000 0.000000 10.000000 
Rope4_Seg02 0.000000 0.000000 0.000000 0.000000 0.000000 0.000000 10.000000 
Rope4_Seg03 0.000000 0.000000 0.000000 0.000000 0.000000 0.000000 10.000000 
Rope4_Seg04 0.000000 0.000000 0.000000 0.000000 0.000000 0.000000 10.000000 
Rope4_Seg05 0.000000 0.000000 0.000000 0.000000 0.000000 0.000000 10.000000 
Rope4_Seg06 0.000000 0.000000 0.000000 0.000000 0.000000 0.000000 10.000000 
Rope4_Seg07 0.000000 0.000000 0.000000 0.000000 0.000000 0.000000 10.000000 
Rope4_Seg08 0.000000 0.000000 0.000000 0.000000 0.000000 0.000000 10.000000 
Rope4_Seg09 0.000000 0.000000 0.000000 0.000000 0.000000 0.000000 10.000000 
L_rear_hand01 0.000000 0.000000 0.000000 0.000000 0.000000 0.000000 10.000000 
L_rear_hand02 0.000000 0.000000 0.000000 0.000000 0.000000 0.000000 10.000000 
L_rear_hand03 0.000000 0.000000 0.000000 0.000000 0.000000 0.000000 10.000000 
#Beginning of Data. Separated by tabs
#Fr	Tx	Ty	Tz	Rx	Ry	Rz	SF
[MASTER]
43 0.000000 0.000000 0.000000 0.001660 0.001660 0.001660 0.000000
44 0.000000 0.000000 0.000000 0.001660 0.001660 0.001660 0.000000
[root]
43 -7.007878 -52.682220 1595.840088 -107.779243 15.313843 -87.777641 1596.724854
44 -13.688386 -52.834595 1598.769897 -107.832283 15.774444 -87.941269 1599.701172
[chest]
43 -86.836601 -33.005978 -30.127232 0.182490 -9.118427 177.152023 97.660843
44 -86.836594 -33.005978 -30.127232 -0.267067 -9.149427 177.983612 97.660828
[L_mid_tent01]
43 27.299484 22.177580 -249.918289 -4.919714 14.299954 76.432274 252.381180
44 27.299482 22.177580 -249.918289 -4.880126 12.787307 75.926872 252.381180
[R_mid_tent01]
43 23.228794 24.509907 226.238495 -176.048920 -16.061331 65.621658 228.744751
44 23.228794 24.509907 226.238495 -176.054916 -15.722733 65.645912 228.744751
[spine01]
43 -0.361383 -0.195265 0.000000 -0.000001 -0.000007 22.052340 0.410763
44 -0.361383 -0.195265 0.000000 -0.000001 -0.000007 22.052340 0.410763
[Bip01_Neck]
43 165.484543 71.581718 0.000119 175.896118 1.177290 24.871183 180.302734
44 165.484543 71.581718 0.000119 175.896118 1.177290 24.871183 180.302734
[L_humerus]
43 -13.983130 -135.272980 -120.471481 -168.517593 36.033749 -113.483025 181.680161
44 -13.983130 -135.272980 -120.471481 -168.517593 36.033749 -113.483025 181.680161
[R_humerus]
43 -13.983309 -135.273102 125.287651 -179.588654 -28.895136 -122.030510 184.909012
44 -13.983309 -135.273102 125.287651 -179.588654 -28.895136 -122.030510 184.909012
[weapon_bone]
43 235.964890 -300.705902 0.000000 0.000000 -89.951546 -128.212341 382.234833
44 235.964890 -300.705902 0.000000 0.000000 -89.951546 -128.212341 382.234833
[Bip01_Head]
43 189.519852 179.130280 22.124914 -23.626308 5.787232 14.654977 261.715363
44 189.519852 179.130295 22.124916 -23.626301 5.787230 14.654975 261.715393
[eye_left_bone]
43 -24.626970 125.451866 -64.772606 0.000000 -90.000000 -99.840431 143.318359
44 -24.626970 125.451866 -64.772606 0.000000 -90.000000 -99.840431 143.318359
[eye_right_bone]
43 -24.626970 125.451866 64.327362 0.000000 -89.965736 80.156380 143.117676
44 -24.626970 125.451866 64.327362 0.000000 -89.965736 80.156380 143.117676
[L_forearm]
43 322.776093 0.000000 -0.000119 0.000017 0.002347 -89.149834 322.776093
44 322.776093 0.000000 -0.000119 0.000017 0.002347 -89.149834 322.776093
[L_front_hand]
43 241.149185 -0.042021 -3.300071 48.439678 -2.244880 -0.020950 241.171753
44 241.149185 -0.042021 -3.300071 49.091423 -2.244335 -0.022666 241.171753
[L_weapon_bone]
43 156.183838 0.000000 0.000000 0.000014 0.000007 0.000001 156.183838
44 156.183838 0.000000 0.000000 0.000014 0.000007 0.000001 156.183838
[L_front_hand01_01]
43 86.095154 20.947098 -0.655860 -0.366594 -0.477154 75.385574 88.609184
44 86.095154 20.947098 -0.655860 -0.366594 -0.477154 75.385574 88.609184
[L_front_hand02_01]
43 86.935165 -11.437475 24.513514 154.399796 -59.883835 -61.369587 91.046425
44 86.935165 -11.437475 24.513514 154.399796 -59.883835 -61.369587 91.046425
[L_front_hand03_01]
43 86.637497 -14.123976 -20.424902 -153.913879 58.118130 -62.702892 90.126129
44 86.637497 -14.123976 -20.424902 -153.913849 58.118122 -62.702866 90.126129
[L_front_hand01_02]
43 71.020905 -0.000179 0.000030 0.000334 -0.002323 -106.379684 71.020905
44 71.020905 -0.000179 0.000030 0.000334 -0.002323 -106.379684 71.020905
[L_front_hand02_02]
43 71.020927 -0.000119 0.000060 0.000334 -0.002323 -106.379684 71.020927
44 71.020927 -0.000119 0.000060 0.000334 -0.002323 -106.379684 71.020927
[L_front_hand03_02]
43 71.020905 -0.000060 0.000060 0.000334 -0.002323 -106.379684 71.020905
44 71.020905 -0.000060 0.000060 0.000334 -0.002323 -106.379684 71.020905
[R_forearm]
43 322.776428 -0.000060 0.000030 0.213197 0.007525 -93.425262 322.776428
44 322.776428 -0.000060 0.000030 0.213197 0.007525 -93.425262 322.776428
[R_front_hand]
43 238.847015 -0.006795 2.210259 -0.270529 1.703932 2.322530 238.857239
44 238.847015 -0.006795 2.210259 -0.270529 1.703932 2.322531 238.857239
[R_weapon_bone]
43 155.664093 0.002503 -0.000030 0.003487 0.001180 -90.988930 155.664078
44 155.664093 0.002503 -0.000030 0.003487 0.001180 -90.988930 155.664078
[R_front_hand01_01]
43 87.624611 14.231146 22.918642 -154.633499 -59.950619 61.746044 91.683487
44 87.624611 14.231146 22.918642 -154.633499 -59.950619 61.746044 91.683487
[R_front_hand02_01]
43 89.356956 14.367283 -19.491137 154.602661 58.302849 63.744389 92.579636
44 89.356956 14.367283 -19.491137 154.602661 58.302849 63.744389 92.579636
[R_front_hand03_01]
43 87.286232 -22.307278 -0.143439 0.162155 -0.423168 -75.767921 90.091743
44 87.286232 -22.307278 -0.143439 0.162155 -0.423168 -75.767921 90.091743
[R_front_hand01_02]
43 71.020905 0.000060 0.000119 0.002323 -0.000334 106.381714 71.020905
44 71.020905 0.000060 0.000119 0.002323 -0.000334 106.381714 71.020905
[R_front_hand02_02]
43 71.020844 -0.000030 -0.000119 0.002323 -0.000334 106.381714 71.020836
44 71.020844 -0.000030 -0.000119 0.002323 -0.000334 106.381714 71.020836
[R_front_hand03_02]
43 71.020905 0.000000 0.000030 0.002323 -0.000334 106.381714 71.020905
44 71.020905 0.000000 0.000030 0.002323 -0.000334 106.381714 71.020905
[null_rope01_connect]
43 328.732483 0.000000 -0.000238 158.788834 -56.406590 -160.767654 328.732483
44 328.732483 0.000000 -0.000238 157.943161 -57.832676 -159.911072 328.732483
[Rope1_Seg01]
43 0.000000 0.000000 0.000000 -80.441505 70.908897 -77.263680 0.000000
44 0.000000 0.000000 0.000000 -87.190819 70.540627 -83.478775 0.000000
[Rope1_Seg02]
43 139.999863 -0.000179 0.000000 0.390436 0.818513 -1.662358 139.999863
44 139.999863 -0.000179 0.000000 0.591950 0.559388 -1.682030 139.999863
[Rope1_Seg03]
43 139.999924 0.000060 -0.000060 0.615016 1.017844 -2.233538 139.999924
44 139.999924 0.000060 -0.000060 0.915386 0.592942 -2.184776 139.999924
[Rope1_Seg04]
43 139.999924 -0.000060 -0.000119 1.833000 0.326033 -3.263097 139.999924
44 139.999924 -0.000060 -0.000119 2.257931 -0.379241 -3.018684 139.999924
[Rope1_Seg05]
43 139.999832 0.000119 -0.000060 -0.679799 5.422301 -5.593035 139.999832
44 139.999832 0.000119 -0.000060 -0.213783 5.207191 -5.931858 139.999832
[Rope1_Seg06]
43 139.999954 0.000119 -0.000060 -1.366049 3.269203 -2.318522 139.999954
44 139.999954 0.000119 -0.000060 -0.901787 3.107758 -2.655188 139.999954
[Rope1_Seg07]
43 139.999985 0.000060 0.000000 -0.450381 1.505229 -1.275446 139.999985
44 139.999985 0.000060 0.000000 -0.183860 1.404107 -1.415201 139.999985
[Rope1_Seg09]
43 121.602913 0.000119 -0.000089 -89.793175 -1.359789 0.847147 121.602913
44 121.602913 0.000119 -0.000089 -89.793175 -1.359789 0.847147 121.602913
[L_mid_hand01]
43 103.859421 1.038730 8.195221 106.855484 -31.239275 -9.461397 104.187431
44 103.859421 1.038730 8.195221 106.855484 -31.239275 -9.461397 104.187431
[L_mid_hand02]
43 105.572853 -4.139662 -10.864139 -142.331345 25.752670 -28.774628 106.211075
44 105.572853 -4.139662 -10.864139 -142.331345 25.752670 -28.774628 106.211075
[L_mid_hand03]
43 104.641464 17.579376 -3.913581 -16.122810 9.734291 34.223598 106.179977
44 104.641464 17.579376 -3.913581 -16.122810 9.734291 34.223598 106.179977
[null_rope02_connect]
43 328.732849 0.000179 -0.000119 -82.849174 84.509743 89.085655 328.732849
44 328.732849 0.000179 -0.000119 -78.928940 84.635788 93.455299 328.732849
[Rope2_Seg01]
43 0.000076 0.000111 0.000153 142.167435 86.315071 -103.474701 0.000204
44 0.000076 0.000111 0.000153 137.822906 86.897766 -107.978622 0.000204
[Rope2_Seg02]
43 139.999741 -0.000060 -0.000119 -3.207159 8.440227 5.191909 139.999756
44 139.999741 -0.000060 -0.000119 -3.146187 8.512135 5.202046 139.999756
[Rope2_Seg03]
43 140.000107 0.000030 0.000000 -6.338853 11.531212 8.570934 140.000107
44 140.000107 0.000030 0.000000 -6.306145 11.748066 8.648736 140.000107
[Rope2_Seg04]
43 139.999802 0.000000 -0.000060 -9.202250 11.327864 10.623893 139.999802
44 139.999802 0.000000 -0.000060 -9.283586 11.615407 10.778786 139.999802
[Rope2_Seg05]
43 139.999985 -0.000060 0.000119 2.942272 -0.680712 -3.882966 139.999985
44 139.999985 -0.000060 0.000119 2.841501 -0.609732 -3.787691 139.999985
[Rope2_Seg06]
43 139.999893 -0.000030 -0.000119 1.925569 -0.674871 -2.431162 139.999893
44 139.999893 -0.000030 -0.000119 1.804271 -0.585284 -2.312717 139.999893
[Rope2_Seg07]
43 139.999893 0.000060 -0.000060 0.446076 0.109624 -0.736071 139.999893
44 139.999893 0.000060 -0.000060 0.386486 0.159740 -0.677845 139.999893
[Rope2_Seg09]
43 121.338966 0.000089 -0.000060 33.793236 -1.359788 -0.847141 121.338966
44 121.338966 0.000089 -0.000060 33.793236 -1.359788 -0.847141 121.338966
[R_mid_hand01]
43 104.680779 11.144459 -10.335981 -41.523792 25.424656 28.595957 105.778534
44 104.680779 11.144459 -10.335981 -41.523792 25.424656 28.595957 105.778534
[R_mid_hand02]
43 104.070427 2.443552 8.231699 72.847389 -32.746803 10.013901 104.424065
44 104.070427 2.443552 8.231699 72.847389 -32.746803 10.013901 104.424065
[R_mid_hand03]
43 106.028137 -11.221827 -5.996406 -167.901306 10.259192 -37.009720 106.788818
44 106.028137 -11.221827 -5.996406 -167.901306 10.259192 -37.009720 106.788818
[spine02]
43 129.756927 0.001550 0.000119 -0.245322 -4.052060 -4.355547 129.756927
44 129.756927 0.001550 0.000119 -0.245322 -4.052060 -4.355547 129.756927
[spine03]
43 78.613846 0.087372 -4.898873 0.207412 -2.089717 -0.432471 78.766380
44 78.613846 0.087372 -4.898873 0.207412 -2.089717 -0.432471 78.766380
[pelvis]
43 169.435242 0.051022 0.000000 -0.010007 -0.191417 -1.897554 169.435257
44 169.435242 0.051022 0.000000 -0.010007 -0.191417 -1.897554 169.435257
[null_rope03_connect]
43 -1.257226 -2.466202 137.391083 138.142578 -71.595177 -79.502090 137.418976
44 -1.257226 -2.466202 137.391083 138.149414 -71.642059 -80.000153 137.418976
[null_rope04_connect]
43 -1.259640 -2.480268 -137.844437 138.142578 -71.595177 -79.502090 137.872513
44 -1.259640 -2.480268 -137.844437 138.149414 -71.642059 -80.000153 137.872513
[Rope3_Seg01]
43 0.000000 0.000000 0.000000 -161.972824 72.467316 -98.639999 0.000000
44 0.000000 0.000000 0.000000 -164.112747 73.200836 -100.519875 0.000000
[Rope3_Seg02]
43 139.999924 -0.000119 0.000060 3.565019 8.297071 -4.938180 139.999924
44 139.999924 -0.000119 0.000060 3.668207 8.438580 -4.805055 139.999924
[Rope3_Seg03]
43 139.999924 -0.000119 0.000119 6.048547 15.307557 -8.183558 139.999924
44 139.999924 -0.000119 0.000119 6.243050 15.310964 -7.997594 139.999924
[Rope3_Seg04]
43 139.999924 0.000119 0.000000 4.756317 11.369329 -9.865417 139.999924
44 139.999924 0.000119 0.000000 5.297911 12.477191 -10.222327 139.999924
[Rope3_Seg05]
43 139.999924 -0.000238 0.000060 -7.941140 -24.433872 7.157753 139.999924
44 139.999924 -0.000238 0.000060 -7.877019 -23.593365 6.613409 139.999924
[Rope3_Seg06]
43 139.999893 -0.000119 -0.000060 -1.398225 -12.812946 2.005268 139.999893
44 139.999893 -0.000119 -0.000060 -1.589518 -12.994742 1.950019 139.999893
[Rope3_Seg07]
43 139.999771 0.000060 -0.000119 0.164714 -6.050472 0.475837 139.999771
44 139.999771 0.000060 -0.000119 0.104261 -6.114511 0.397263 139.999771
[Rope3_Seg08]
43 139.999985 -0.000060 0.000000 0.469935 -3.455426 0.277769 139.999985
44 139.999985 -0.000060 0.000000 0.439769 -3.506313 0.235605 139.999985
[Rope3_Seg09]
43 90.185997 -0.000179 -0.000060 89.793228 -1.359877 -0.847183 90.185997
44 90.185997 -0.000179 -0.000060 89.793228 -1.359877 -0.847183 90.185997
[R_rear_hand01]
43 103.366196 -6.073594 -10.757982 -161.551193 16.666374 -30.088671 104.101845
44 103.366196 -6.073594 -10.757982 -161.551193 16.666374 -30.088671 104.101845
[R_rear_hand02]
43 100.509819 12.039542 -7.992327 -34.280552 19.289745 28.875523 101.543350
44 100.509819 12.039542 -7.992327 -34.280552 19.289745 28.875523 101.543350
[R_rear_hand03]
43 101.539970 5.215704 5.435467 83.366440 -30.933914 7.284830 101.819031
44 101.539970 5.215704 5.435467 83.366440 -30.933914 7.284830 101.819031
[Rope4_Seg01]
43 0.000010 0.000038 -0.000114 20.852707 59.561333 -141.711548 0.000121
44 0.000010 0.000038 -0.000114 19.010099 59.112885 -143.817871 0.000121
[Rope4_Seg02]
43 139.999985 0.000060 0.000119 0.379934 5.415993 7.149073 139.999985
44 139.999985 0.000060 0.000119 0.475628 5.210964 7.678055 139.999985
[Rope4_Seg03]
43 139.999924 0.000000 -0.000238 -0.370208 6.141955 9.815323 139.999924
44 139.999924 0.000000 -0.000238 -0.377541 5.906396 10.744476 139.999924
[Rope4_Seg04]
43 139.999985 0.000000 0.000119 -0.767742 5.693391 6.865665 139.999985
44 139.999985 0.000000 0.000119 -0.889880 5.708655 7.588985 139.999985
[Rope4_Seg05]
43 139.999802 -0.000060 -0.000119 2.217918 2.644732 -4.807460 139.999802
44 139.999802 -0.000060 -0.000119 2.457504 3.311052 -5.348354 139.999802
[Rope4_Seg06]
43 139.999924 0.000000 0.000060 1.295243 1.804488 -2.367332 139.999924
44 139.999924 0.000000 0.000060 1.436839 2.161859 -2.608186 139.999924
[Rope4_Seg07]
43 139.999802 0.000000 0.000000 0.890885 1.426268 -1.283187 139.999802
44 139.999802 0.000000 0.000000 0.990180 1.646365 -1.433441 139.999802
[Rope4_Seg08]
43 139.999924 0.000000 0.000119 -0.983349 0.840764 -0.777138 139.999924
44 139.999924 0.000000 0.000119 -0.930308 0.949333 -0.851825 139.999924
[Rope4_Seg09]
43 90.185791 0.000060 0.000060 -135.617828 2.228885 0.850567 90.185791
44 90.185791 0.000060 0.000060 -135.617828 2.228885 0.850567 90.185791
[L_rear_hand01]
43 101.696655 -8.392275 -7.654577 -34.454281 -18.946800 151.655121 102.329041
44 101.696655 -8.392275 -7.654577 -34.454281 -18.946800 151.655121 102.329041
[L_rear_hand02]
43 102.726799 -1.568258 5.773216 83.407906 30.330435 172.796509 102.900848
44 102.726799 -1.568258 5.773216 83.407906 30.330435 172.796509 102.900848
[L_rear_hand03]
43 104.552910 9.721220 -10.420293 -161.379868 -16.473232 -150.512238 105.519653
44 104.552910 9.721220 -10.420293 -161.379868 -16.473232 -150.512238 105.519653
